<mxfile host="app.diagrams.net" modified="2023-04-21T15:54:26.007Z" agent="Mozilla/5.0 (Windows NT 10.0; Win64; x64) AppleWebKit/537.36 (KHTML, like Gecko) Chrome/112.0.0.0 Safari/537.36" etag="-mpAZ5SFp8cezcil1H-f" version="21.2.0" type="github">
  <diagram name="페이지-1" id="1czYJBeXNxODDHmJOxbX">
    <mxGraphModel dx="1114" dy="576" grid="1" gridSize="10" guides="1" tooltips="1" connect="1" arrows="1" fold="1" page="1" pageScale="1" pageWidth="827" pageHeight="1169" math="0" shadow="0">
      <root>
        <mxCell id="0" />
        <mxCell id="1" parent="0" />
        <mxCell id="4vMP-QE4fuLTfupLyWI_-1" value="preWeek(yearWeek , delWeek)&lt;br&gt;" style="rounded=0;whiteSpace=wrap;html=1;" parent="1" vertex="1">
          <mxGeometry x="215" y="150" width="410" height="71" as="geometry" />
        </mxCell>
        <mxCell id="4vMP-QE4fuLTfupLyWI_-3" value="" style="endArrow=none;html=1;rounded=0;exitX=0.5;exitY=0;exitDx=0;exitDy=0;" parent="1" source="4vMP-QE4fuLTfupLyWI_-4" target="4vMP-QE4fuLTfupLyWI_-1" edge="1">
          <mxGeometry width="50" height="50" relative="1" as="geometry">
            <mxPoint x="381" y="282" as="sourcePoint" />
            <mxPoint x="446" y="362" as="targetPoint" />
          </mxGeometry>
        </mxCell>
        <mxCell id="4vMP-QE4fuLTfupLyWI_-4" value="yearWeek를 str으로 변환" style="rounded=0;whiteSpace=wrap;html=1;" parent="1" vertex="1">
          <mxGeometry x="215" y="252" width="410" height="40" as="geometry" />
        </mxCell>
        <mxCell id="4vMP-QE4fuLTfupLyWI_-14" value="" style="edgeStyle=orthogonalEdgeStyle;rounded=0;orthogonalLoop=1;jettySize=auto;html=1;" parent="1" source="4vMP-QE4fuLTfupLyWI_-5" target="4vMP-QE4fuLTfupLyWI_-13" edge="1">
          <mxGeometry relative="1" as="geometry" />
        </mxCell>
        <mxCell id="4vMP-QE4fuLTfupLyWI_-5" value="&lt;div&gt;&lt;br&gt;&lt;/div&gt;&lt;div&gt;&amp;nbsp; &amp;nbsp; 입력한 yearWeek의 연도만 추출&lt;/div&gt;&lt;div&gt;&amp;nbsp; &amp;nbsp; outYear = int( strYearWeek[:4] )&lt;/div&gt;&lt;div&gt;&amp;nbsp; &amp;nbsp;&amp;nbsp;&lt;/div&gt;&lt;div&gt;입력한 yearWeek의 주차만 추출&lt;/div&gt;&lt;div&gt;&amp;nbsp; &amp;nbsp; outWeek = int( strYearWeek[4:] )&lt;/div&gt;" style="rounded=0;whiteSpace=wrap;html=1;" parent="1" vertex="1">
          <mxGeometry x="215" y="472" width="410" height="100" as="geometry" />
        </mxCell>
        <mxCell id="4vMP-QE4fuLTfupLyWI_-8" value="과거 주차를 출력하기 위한 변수 지정&lt;br&gt;pastWeek = &quot;&quot;;" style="rounded=0;whiteSpace=wrap;html=1;" parent="1" vertex="1">
          <mxGeometry x="215" y="392" width="410" height="40" as="geometry" />
        </mxCell>
        <mxCell id="4vMP-QE4fuLTfupLyWI_-9" value="" style="endArrow=none;html=1;rounded=0;entryX=0.5;entryY=1;entryDx=0;entryDy=0;exitX=0.5;exitY=0;exitDx=0;exitDy=0;" parent="1" source="4vMP-QE4fuLTfupLyWI_-5" target="4vMP-QE4fuLTfupLyWI_-8" edge="1">
          <mxGeometry width="50" height="50" relative="1" as="geometry">
            <mxPoint x="396" y="522" as="sourcePoint" />
            <mxPoint x="446" y="472" as="targetPoint" />
          </mxGeometry>
        </mxCell>
        <mxCell id="4vMP-QE4fuLTfupLyWI_-22" value="" style="edgeStyle=orthogonalEdgeStyle;rounded=0;orthogonalLoop=1;jettySize=auto;html=1;" parent="1" source="4vMP-QE4fuLTfupLyWI_-13" target="4vMP-QE4fuLTfupLyWI_-21" edge="1">
          <mxGeometry relative="1" as="geometry">
            <Array as="points">
              <mxPoint x="420" y="752" />
              <mxPoint x="225" y="752" />
            </Array>
          </mxGeometry>
        </mxCell>
        <mxCell id="4vMP-QE4fuLTfupLyWI_-23" style="edgeStyle=orthogonalEdgeStyle;rounded=0;orthogonalLoop=1;jettySize=auto;html=1;" parent="1" source="4vMP-QE4fuLTfupLyWI_-13" target="4vMP-QE4fuLTfupLyWI_-15" edge="1">
          <mxGeometry relative="1" as="geometry" />
        </mxCell>
        <mxCell id="4vMP-QE4fuLTfupLyWI_-13" value="outWeek&amp;gt;delWeek&amp;nbsp; ?&amp;nbsp;" style="rhombus;whiteSpace=wrap;html=1;rounded=0;" parent="1" vertex="1">
          <mxGeometry x="235" y="612" width="370" height="60" as="geometry" />
        </mxCell>
        <mxCell id="4vMP-QE4fuLTfupLyWI_-15" value="outWeek&amp;lt; delWeek 인 경우&lt;br&gt;&amp;nbsp;&lt;br&gt;&lt;div&gt;outYear = outYear-1&lt;/div&gt;&lt;div&gt;&amp;nbsp; &amp;nbsp;outWeek = outWeek + Week.last_week_of_year(outYear).week&lt;/div&gt;" style="whiteSpace=wrap;html=1;rounded=0;" parent="1" vertex="1">
          <mxGeometry x="443" y="832" width="373" height="72" as="geometry" />
        </mxCell>
        <mxCell id="4vMP-QE4fuLTfupLyWI_-28" value="" style="edgeStyle=orthogonalEdgeStyle;rounded=0;orthogonalLoop=1;jettySize=auto;html=1;" parent="1" source="4vMP-QE4fuLTfupLyWI_-21" target="4vMP-QE4fuLTfupLyWI_-27" edge="1">
          <mxGeometry relative="1" as="geometry" />
        </mxCell>
        <mxCell id="4vMP-QE4fuLTfupLyWI_-21" value="outWeek&amp;gt;delWeek 인 경우&lt;br&gt;&lt;br&gt;outWeek = outWeek - delWeek&lt;br&gt;&amp;nbsp; &amp;nbsp; &amp;nbsp; &amp;nbsp; &amp;nbsp; &amp;nbsp; pastWeek = str(outYear)+str(outWeek)" style="whiteSpace=wrap;html=1;rounded=0;" parent="1" vertex="1">
          <mxGeometry x="30" y="833" width="390" height="69" as="geometry" />
        </mxCell>
        <mxCell id="4vMP-QE4fuLTfupLyWI_-27" value="return pastWeek" style="whiteSpace=wrap;html=1;rounded=0;" parent="1" vertex="1">
          <mxGeometry x="35" y="982" width="380" height="50" as="geometry" />
        </mxCell>
        <mxCell id="4vMP-QE4fuLTfupLyWI_-30" style="edgeStyle=orthogonalEdgeStyle;rounded=0;orthogonalLoop=1;jettySize=auto;html=1;" parent="1" edge="1">
          <mxGeometry relative="1" as="geometry">
            <mxPoint x="826" y="642" as="sourcePoint" />
            <mxPoint x="606" y="642" as="targetPoint" />
          </mxGeometry>
        </mxCell>
        <mxCell id="4vMP-QE4fuLTfupLyWI_-33" value="" style="endArrow=none;html=1;rounded=0;" parent="1" edge="1">
          <mxGeometry width="50" height="50" relative="1" as="geometry">
            <mxPoint x="826" y="972" as="sourcePoint" />
            <mxPoint x="826" y="642" as="targetPoint" />
            <Array as="points">
              <mxPoint x="826" y="722" />
            </Array>
          </mxGeometry>
        </mxCell>
        <mxCell id="4vMP-QE4fuLTfupLyWI_-35" value="" style="endArrow=none;html=1;rounded=0;" parent="1" edge="1">
          <mxGeometry width="50" height="50" relative="1" as="geometry">
            <mxPoint x="626" y="972" as="sourcePoint" />
            <mxPoint x="826" y="972" as="targetPoint" />
          </mxGeometry>
        </mxCell>
        <mxCell id="4vMP-QE4fuLTfupLyWI_-38" value="양윤재&lt;br&gt;&lt;br&gt;[2023.04.19] 입력한 연도의 과거주차 계산하기" style="rounded=0;whiteSpace=wrap;html=1;align=left;glass=0;shadow=1;" parent="1" vertex="1">
          <mxGeometry x="20" y="40" width="253" height="60" as="geometry" />
        </mxCell>
        <mxCell id="cjLwUQ9vuETYNLwmpzf1-2" value="delWeek를 int로 변환" style="rounded=0;whiteSpace=wrap;html=1;" vertex="1" parent="1">
          <mxGeometry x="215" y="322" width="411" height="40" as="geometry" />
        </mxCell>
        <mxCell id="cjLwUQ9vuETYNLwmpzf1-5" value="" style="endArrow=none;html=1;rounded=0;entryX=0.5;entryY=1;entryDx=0;entryDy=0;" edge="1" parent="1" target="4vMP-QE4fuLTfupLyWI_-4">
          <mxGeometry width="50" height="50" relative="1" as="geometry">
            <mxPoint x="420" y="322" as="sourcePoint" />
            <mxPoint x="696" y="362" as="targetPoint" />
          </mxGeometry>
        </mxCell>
        <mxCell id="cjLwUQ9vuETYNLwmpzf1-7" value="" style="endArrow=none;html=1;rounded=0;entryX=0.5;entryY=1;entryDx=0;entryDy=0;exitX=0.5;exitY=0;exitDx=0;exitDy=0;" edge="1" parent="1" source="4vMP-QE4fuLTfupLyWI_-8" target="cjLwUQ9vuETYNLwmpzf1-2">
          <mxGeometry width="50" height="50" relative="1" as="geometry">
            <mxPoint x="646" y="412" as="sourcePoint" />
            <mxPoint x="696" y="362" as="targetPoint" />
          </mxGeometry>
        </mxCell>
        <mxCell id="cjLwUQ9vuETYNLwmpzf1-8" value="" style="endArrow=none;html=1;rounded=0;entryX=0.5;entryY=1;entryDx=0;entryDy=0;" edge="1" parent="1" target="4vMP-QE4fuLTfupLyWI_-15">
          <mxGeometry width="50" height="50" relative="1" as="geometry">
            <mxPoint x="630" y="972" as="sourcePoint" />
            <mxPoint x="696" y="862" as="targetPoint" />
          </mxGeometry>
        </mxCell>
      </root>
    </mxGraphModel>
  </diagram>
</mxfile>
